<?xml version="1.0" encoding="utf-8"?>
<!DOCTYPE svg PUBLIC "-//W3C//DTD SVG 1.1//EN" "http://www.w3.org/Graphics/SVG/1.1/DTD/svg11.dtd">
<svg version="1.1" id="Layer_1" xmlns="http://www.w3.org/2000/svg" xmlns:xlink="http://www.w3.org/1999/xlink" x="0px" y="0px"
width="1287px" height="1287px" viewBox="0 0 1287 1287" enable-background="new 0 0 1287 1287" xml:space="preserve">
<rect x="0" y="0" width="1287" height="1287" fill="rgb(255,255,255)" /><g transform="translate(78,78)"><g transform="translate(390,0) scale(0.39,0.39)"><g transform="" style="fill: rgb(0, 0, 0);">
<g>
	<polygon points="5,25 75,5 95,75 25,95"/>
</g>
</g></g><g transform="translate(429,0) scale(0.39,0.39)"><g transform="" style="fill: rgb(0, 0, 0);">
<polygon points="8,4 4,92 92,96 96,8"/>
</g></g><g transform="translate(468,0) scale(0.39,0.39)"><g transform="" style="fill: rgb(0, 0, 0);">
<polygon points="8,4 4,92 92,96 96,8"/>
</g></g><g transform="translate(507,0) scale(0.39,0.39)"><g transform="" style="fill: rgb(0, 0, 0);">
<g>
	<polygon points="15,5 5,85 85,95 95,15"/>
</g>
</g></g><g transform="translate(624,0) scale(0.39,0.39)"><g transform="" style="fill: rgb(0, 0, 0);">
<g>
	<polygon points="0,5 95,0 100,95 5,100"/>
</g>
</g></g><g transform="translate(702,0) scale(0.39,0.39)"><g transform="" style="fill: rgb(0, 0, 0);">
<g>
	<polygon points="0,12 88,0 100,88 12,100"/>
</g>
</g></g><g transform="translate(741,0) scale(0.39,0.39)"><g transform="" style="fill: rgb(0, 0, 0);">
<g>
	<polygon points="22,0 0,78 78,100 100,22"/>
</g>
</g></g><g transform="translate(312,39) scale(0.39,0.39)"><g transform="" style="fill: rgb(0, 0, 0);">
<g>
	<polygon points="5,25 75,5 95,75 25,95"/>
</g>
</g></g><g transform="translate(351,39) scale(0.39,0.39)"><g transform="" style="fill: rgb(0, 0, 0);">
<g>
	<polygon points="22,0 0,78 78,100 100,22"/>
</g>
</g></g><g transform="translate(468,39) scale(0.39,0.39)"><g transform="" style="fill: rgb(0, 0, 0);">
<polygon points="8,4 4,92 92,96 96,8"/>
</g></g><g transform="translate(546,39) scale(0.39,0.39)"><g transform="" style="fill: rgb(0, 0, 0);">
<g>
	<polygon points="0,12 88,0 100,88 12,100"/>
</g>
</g></g><g transform="translate(585,39) scale(0.39,0.39)"><g transform="" style="fill: rgb(0, 0, 0);">
<polygon points="8,4 4,92 92,96 96,8"/>
</g></g><g transform="translate(624,39) scale(0.39,0.39)"><g transform="" style="fill: rgb(0, 0, 0);">
<polygon points="8,4 4,92 92,96 96,8"/>
</g></g><g transform="translate(663,39) scale(0.39,0.39)"><g transform="" style="fill: rgb(0, 0, 0);">
<polygon points="8,4 4,92 92,96 96,8"/>
</g></g><g transform="translate(702,39) scale(0.39,0.39)"><g transform="" style="fill: rgb(0, 0, 0);">
<polygon points="8,4 4,92 92,96 96,8"/>
</g></g><g transform="translate(741,39) scale(0.39,0.39)"><g transform="" style="fill: rgb(0, 0, 0);">
<polygon points="8,4 4,92 92,96 96,8"/>
</g></g><g transform="translate(780,39) scale(0.39,0.39)"><g transform="" style="fill: rgb(0, 0, 0);">
<g>
	<polygon points="22,0 0,78 78,100 100,22"/>
</g>
</g></g><g transform="translate(351,78) scale(0.39,0.39)"><g transform="" style="fill: rgb(0, 0, 0);">
<polygon points="8,4 4,92 92,96 96,8"/>
</g></g><g transform="translate(429,78) scale(0.39,0.39)"><g transform="" style="fill: rgb(0, 0, 0);">
<g>
	<polygon points="5,25 75,5 95,75 25,95"/>
</g>
</g></g><g transform="translate(468,78) scale(0.39,0.39)"><g transform="" style="fill: rgb(0, 0, 0);">
<polygon points="8,4 4,92 92,96 96,8"/>
</g></g><g transform="translate(507,78) scale(0.39,0.39)"><g transform="" style="fill: rgb(0, 0, 0);">
<polygon points="8,4 4,92 92,96 96,8"/>
</g></g><g transform="translate(546,78) scale(0.39,0.39)"><g transform="" style="fill: rgb(0, 0, 0);">
<polygon points="8,4 4,92 92,96 96,8"/>
</g></g><g transform="translate(624,78) scale(0.39,0.39)"><g transform="" style="fill: rgb(0, 0, 0);">
<g>
	<polygon points="0,10 90,0 100,90 10,100"/>
</g>
</g></g><g transform="translate(780,78) scale(0.39,0.39)"><g transform="" style="fill: rgb(0, 0, 0);">
<g>
	<polygon points="0,10 90,0 100,90 10,100"/>
</g>
</g></g><g transform="translate(351,117) scale(0.39,0.39)"><g transform="" style="fill: rgb(0, 0, 0);">
<polygon points="8,4 4,92 92,96 96,8"/>
</g></g><g transform="translate(507,117) scale(0.39,0.39)"><g transform="" style="fill: rgb(0, 0, 0);">
<g>
	<polygon points="13,0 0,87 87,100 100,13"/>
</g>
</g></g><g transform="translate(546,117) scale(0.39,0.39)"><g transform="" style="fill: rgb(0, 0, 0);">
<polygon points="8,4 4,92 92,96 96,8"/>
</g></g><g transform="translate(585,117) scale(0.39,0.39)"><g transform="" style="fill: rgb(0, 0, 0);">
<g>
	<polygon points="15,5 5,85 85,95 95,15"/>
</g>
</g></g><g transform="translate(702,117) scale(0.39,0.39)"><g transform="" style="fill: rgb(0, 0, 0);">
<g>
	<polygon points="0,5 95,0 100,95 5,100"/>
</g>
</g></g><g transform="translate(312,156) scale(0.39,0.39)"><g transform="" style="fill: rgb(0, 0, 0);">
<g>
	<polygon points="5,25 75,5 95,75 25,95"/>
</g>
</g></g><g transform="translate(351,156) scale(0.39,0.39)"><g transform="" style="fill: rgb(0, 0, 0);">
<g>
	<polygon points="0,17 83,0 100,83 17,100"/>
</g>
</g></g><g transform="translate(429,156) scale(0.39,0.39)"><g transform="" style="fill: rgb(0, 0, 0);">
<g>
	<polygon points="5,25 75,5 95,75 25,95"/>
</g>
</g></g><g transform="translate(468,156) scale(0.39,0.39)"><g transform="" style="fill: rgb(0, 0, 0);">
<g>
	<polygon points="22,0 0,78 78,100 100,22"/>
</g>
</g></g><g transform="translate(546,156) scale(0.39,0.39)"><g transform="" style="fill: rgb(0, 0, 0);">
<g>
	<polygon points="0,10 90,0 100,90 10,100"/>
</g>
</g></g><g transform="translate(663,156) scale(0.39,0.39)"><g transform="" style="fill: rgb(0, 0, 0);">
<g>
	<polygon points="0,12 88,0 100,88 12,100"/>
</g>
</g></g><g transform="translate(702,156) scale(0.39,0.39)"><g transform="" style="fill: rgb(0, 0, 0);">
<polygon points="8,4 4,92 92,96 96,8"/>
</g></g><g transform="translate(741,156) scale(0.39,0.39)"><g transform="" style="fill: rgb(0, 0, 0);">
<g>
	<polygon points="22,0 0,78 78,100 100,22"/>
</g>
</g></g><g transform="translate(390,195) scale(0.39,0.39)"><g transform="" style="fill: rgb(0, 0, 0);">
<g>
	<polygon points="0,5 95,0 100,95 5,100"/>
</g>
</g></g><g transform="translate(468,195) scale(0.39,0.39)"><g transform="" style="fill: rgb(0, 0, 0);">
<polygon points="8,4 4,92 92,96 96,8"/>
</g></g><g transform="translate(507,195) scale(0.39,0.39)"><g transform="" style="fill: rgb(0, 0, 0);">
<g>
	<polygon points="15,5 5,85 85,95 95,15"/>
</g>
</g></g><g transform="translate(663,195) scale(0.39,0.39)"><g transform="" style="fill: rgb(0, 0, 0);">
<g>
	<polygon points="13,0 0,87 87,100 100,13"/>
</g>
</g></g><g transform="translate(702,195) scale(0.39,0.39)"><g transform="" style="fill: rgb(0, 0, 0);">
<polygon points="8,4 4,92 92,96 96,8"/>
</g></g><g transform="translate(741,195) scale(0.39,0.39)"><g transform="" style="fill: rgb(0, 0, 0);">
<g>
	<polygon points="0,17 83,0 100,83 17,100"/>
</g>
</g></g><g transform="translate(312,234) scale(0.39,0.39)"><g transform="" style="fill: rgb(0, 0, 0);">
<g>
	<polygon points="0,15 85,0 100,85 15,100"/>
</g>
</g></g><g transform="translate(390,234) scale(0.39,0.39)"><g transform="" style="fill: rgb(0, 0, 0);">
<g>
	<polygon points="0,10 90,0 100,90 10,100"/>
</g>
</g></g><g transform="translate(468,234) scale(0.39,0.39)"><g transform="" style="fill: rgb(0, 0, 0);">
<polygon points="8,4 4,92 92,96 96,8"/>
</g></g><g transform="translate(546,234) scale(0.39,0.39)"><g transform="" style="fill: rgb(0, 0, 0);">
<g>
	<polygon points="0,5 95,0 100,95 5,100"/>
</g>
</g></g><g transform="translate(624,234) scale(0.39,0.39)"><g transform="" style="fill: rgb(0, 0, 0);">
<g>
	<polygon points="0,5 95,0 100,95 5,100"/>
</g>
</g></g><g transform="translate(702,234) scale(0.39,0.39)"><g transform="" style="fill: rgb(0, 0, 0);">
<g>
	<polygon points="0,10 90,0 100,90 10,100"/>
</g>
</g></g><g transform="translate(780,234) scale(0.39,0.39)"><g transform="" style="fill: rgb(0, 0, 0);">
<g>
	<polygon points="0,5 95,0 100,95 5,100"/>
</g>
</g></g><g transform="translate(351,273) scale(0.39,0.39)"><g transform="" style="fill: rgb(0, 0, 0);">
<g>
	<polygon points="0,5 95,0 100,95 5,100"/>
</g>
</g></g><g transform="translate(429,273) scale(0.39,0.39)"><g transform="" style="fill: rgb(0, 0, 0);">
<g>
	<polygon points="0,12 88,0 100,88 12,100"/>
</g>
</g></g><g transform="translate(468,273) scale(0.39,0.39)"><g transform="" style="fill: rgb(0, 0, 0);">
<polygon points="8,4 4,92 92,96 96,8"/>
</g></g><g transform="translate(507,273) scale(0.39,0.39)"><g transform="" style="fill: rgb(0, 0, 0);">
<polygon points="8,4 4,92 92,96 96,8"/>
</g></g><g transform="translate(546,273) scale(0.39,0.39)"><g transform="" style="fill: rgb(0, 0, 0);">
<polygon points="8,4 4,92 92,96 96,8"/>
</g></g><g transform="translate(624,273) scale(0.39,0.39)"><g transform="" style="fill: rgb(0, 0, 0);">
<g>
	<polygon points="13,0 0,87 87,100 100,13"/>
</g>
</g></g><g transform="translate(663,273) scale(0.39,0.39)"><g transform="" style="fill: rgb(0, 0, 0);">
<g>
	<polygon points="22,0 0,78 78,100 100,22"/>
</g>
</g></g><g transform="translate(780,273) scale(0.39,0.39)"><g transform="" style="fill: rgb(0, 0, 0);">
<polygon points="8,4 4,92 92,96 96,8"/>
</g></g><g transform="translate(0,312) scale(0.39,0.39)"><g transform="" style="fill: rgb(0, 0, 0);">
<g>
	<polygon points="0,5 95,0 100,95 5,100"/>
</g>
</g></g><g transform="translate(78,312) scale(0.39,0.39)"><g transform="" style="fill: rgb(0, 0, 0);">
<g>
	<polygon points="0,15 85,0 100,85 15,100"/>
</g>
</g></g><g transform="translate(156,312) scale(0.39,0.39)"><g transform="" style="fill: rgb(0, 0, 0);">
<g>
	<polygon points="0,15 85,0 100,85 15,100"/>
</g>
</g></g><g transform="translate(234,312) scale(0.39,0.39)"><g transform="" style="fill: rgb(0, 0, 0);">
<g>
	<polygon points="0,15 85,0 100,85 15,100"/>
</g>
</g></g><g transform="translate(351,312) scale(0.39,0.39)"><g transform="" style="fill: rgb(0, 0, 0);">
<g>
	<polygon points="13,0 0,87 87,100 100,13"/>
</g>
</g></g><g transform="translate(390,312) scale(0.39,0.39)"><g transform="" style="fill: rgb(0, 0, 0);">
<polygon points="8,4 4,92 92,96 96,8"/>
</g></g><g transform="translate(429,312) scale(0.39,0.39)"><g transform="" style="fill: rgb(0, 0, 0);">
<g>
	<polygon points="0,17 83,0 100,83 17,100"/>
</g>
</g></g><g transform="translate(546,312) scale(0.39,0.39)"><g transform="" style="fill: rgb(0, 0, 0);">
<polygon points="8,4 4,92 92,96 96,8"/>
</g></g><g transform="translate(585,312) scale(0.39,0.39)"><g transform="" style="fill: rgb(0, 0, 0);">
<g>
	<polygon points="22,0 0,78 78,100 100,22"/>
</g>
</g></g><g transform="translate(663,312) scale(0.39,0.39)"><g transform="" style="fill: rgb(0, 0, 0);">
<polygon points="8,4 4,92 92,96 96,8"/>
</g></g><g transform="translate(741,312) scale(0.39,0.39)"><g transform="" style="fill: rgb(0, 0, 0);">
<g>
	<polygon points="5,25 75,5 95,75 25,95"/>
</g>
</g></g><g transform="translate(780,312) scale(0.39,0.39)"><g transform="" style="fill: rgb(0, 0, 0);">
<polygon points="8,4 4,92 92,96 96,8"/>
</g></g><g transform="translate(936,312) scale(0.39,0.39)"><g transform="" style="fill: rgb(0, 0, 0);">
<g>
	<polygon points="0,15 85,0 100,85 15,100"/>
</g>
</g></g><g transform="translate(1053,312) scale(0.39,0.39)"><g transform="" style="fill: rgb(0, 0, 0);">
<g>
	<polygon points="0,15 85,0 100,85 15,100"/>
</g>
</g></g><g transform="translate(0,351) scale(0.39,0.39)"><g transform="" style="fill: rgb(0, 0, 0);">
<polygon points="8,4 4,92 92,96 96,8"/>
</g></g><g transform="translate(39,351) scale(0.39,0.39)"><g transform="" style="fill: rgb(0, 0, 0);">
<g>
	<polygon points="22,0 0,78 78,100 100,22"/>
</g>
</g></g><g transform="translate(195,351) scale(0.39,0.39)"><g transform="" style="fill: rgb(0, 0, 0);">
<g>
	<polygon points="0,5 95,0 100,95 5,100"/>
</g>
</g></g><g transform="translate(273,351) scale(0.39,0.39)"><g transform="" style="fill: rgb(0, 0, 0);">
<g>
	<polygon points="0,15 85,0 100,85 15,100"/>
</g>
</g></g><g transform="translate(390,351) scale(0.39,0.39)"><g transform="" style="fill: rgb(0, 0, 0);">
<polygon points="8,4 4,92 92,96 96,8"/>
</g></g><g transform="translate(546,351) scale(0.39,0.39)"><g transform="" style="fill: rgb(0, 0, 0);">
<g>
	<polygon points="13,0 0,87 87,100 100,13"/>
</g>
</g></g><g transform="translate(585,351) scale(0.39,0.39)"><g transform="" style="fill: rgb(0, 0, 0);">
<g>
	<polygon points="0,17 83,0 100,83 17,100"/>
</g>
</g></g><g transform="translate(663,351) scale(0.39,0.39)"><g transform="" style="fill: rgb(0, 0, 0);">
<polygon points="8,4 4,92 92,96 96,8"/>
</g></g><g transform="translate(780,351) scale(0.39,0.39)"><g transform="" style="fill: rgb(0, 0, 0);">
<g>
	<polygon points="0,10 90,0 100,90 10,100"/>
</g>
</g></g><g transform="translate(858,351) scale(0.39,0.39)"><g transform="" style="fill: rgb(0, 0, 0);">
<g>
	<polygon points="0,5 95,0 100,95 5,100"/>
</g>
</g></g><g transform="translate(975,351) scale(0.39,0.39)"><g transform="" style="fill: rgb(0, 0, 0);">
<g>
	<polygon points="0,15 85,0 100,85 15,100"/>
</g>
</g></g><g transform="translate(1092,351) scale(0.39,0.39)"><g transform="" style="fill: rgb(0, 0, 0);">
<g>
	<polygon points="0,5 95,0 100,95 5,100"/>
</g>
</g></g><g transform="translate(0,390) scale(0.39,0.39)"><g transform="" style="fill: rgb(0, 0, 0);">
<polygon points="8,4 4,92 92,96 96,8"/>
</g></g><g transform="translate(39,390) scale(0.39,0.39)"><g transform="" style="fill: rgb(0, 0, 0);">
<polygon points="8,4 4,92 92,96 96,8"/>
</g></g><g transform="translate(195,390) scale(0.39,0.39)"><g transform="" style="fill: rgb(0, 0, 0);">
<polygon points="8,4 4,92 92,96 96,8"/>
</g></g><g transform="translate(234,390) scale(0.39,0.39)"><g transform="" style="fill: rgb(0, 0, 0);">
<g>
	<polygon points="15,5 5,85 85,95 95,15"/>
</g>
</g></g><g transform="translate(351,390) scale(0.39,0.39)"><g transform="" style="fill: rgb(0, 0, 0);">
<g>
	<polygon points="5,25 75,5 95,75 25,95"/>
</g>
</g></g><g transform="translate(390,390) scale(0.39,0.39)"><g transform="" style="fill: rgb(0, 0, 0);">
<g>
	<polygon points="0,17 83,0 100,83 17,100"/>
</g>
</g></g><g transform="translate(507,390) scale(0.39,0.39)"><g transform="" style="fill: rgb(0, 0, 0);">
<g>
	<polygon points="0,15 85,0 100,85 15,100"/>
</g>
</g></g><g transform="translate(663,390) scale(0.39,0.39)"><g transform="" style="fill: rgb(0, 0, 0);">
<polygon points="8,4 4,92 92,96 96,8"/>
</g></g><g transform="translate(702,390) scale(0.39,0.39)"><g transform="" style="fill: rgb(0, 0, 0);">
<g>
	<polygon points="22,0 0,78 78,100 100,22"/>
</g>
</g></g><g transform="translate(819,390) scale(0.39,0.39)"><g transform="" style="fill: rgb(0, 0, 0);">
<g>
	<polygon points="0,12 88,0 100,88 12,100"/>
</g>
</g></g><g transform="translate(858,390) scale(0.39,0.39)"><g transform="" style="fill: rgb(0, 0, 0);">
<polygon points="8,4 4,92 92,96 96,8"/>
</g></g><g transform="translate(897,390) scale(0.39,0.39)"><g transform="" style="fill: rgb(0, 0, 0);">
<g>
	<polygon points="22,0 0,78 78,100 100,22"/>
</g>
</g></g><g transform="translate(1014,390) scale(0.39,0.39)"><g transform="" style="fill: rgb(0, 0, 0);">
<g>
	<polygon points="5,25 75,5 95,75 25,95"/>
</g>
</g></g><g transform="translate(1053,390) scale(0.39,0.39)"><g transform="" style="fill: rgb(0, 0, 0);">
<polygon points="8,4 4,92 92,96 96,8"/>
</g></g><g transform="translate(1092,390) scale(0.39,0.39)"><g transform="" style="fill: rgb(0, 0, 0);">
<g>
	<polygon points="0,17 83,0 100,83 17,100"/>
</g>
</g></g><g transform="translate(0,429) scale(0.39,0.39)"><g transform="" style="fill: rgb(0, 0, 0);">
<g>
	<polygon points="13,0 0,87 87,100 100,13"/>
</g>
</g></g><g transform="translate(39,429) scale(0.39,0.39)"><g transform="" style="fill: rgb(0, 0, 0);">
<g>
	<polygon points="0,17 83,0 100,83 17,100"/>
</g>
</g></g><g transform="translate(117,429) scale(0.39,0.39)"><g transform="" style="fill: rgb(0, 0, 0);">
<g>
	<polygon points="5,25 75,5 95,75 25,95"/>
</g>
</g></g><g transform="translate(156,429) scale(0.39,0.39)"><g transform="" style="fill: rgb(0, 0, 0);">
<polygon points="8,4 4,92 92,96 96,8"/>
</g></g><g transform="translate(195,429) scale(0.39,0.39)"><g transform="" style="fill: rgb(0, 0, 0);">
<g>
	<polygon points="0,17 83,0 100,83 17,100"/>
</g>
</g></g><g transform="translate(312,429) scale(0.39,0.39)"><g transform="" style="fill: rgb(0, 0, 0);">
<g>
	<polygon points="0,5 95,0 100,95 5,100"/>
</g>
</g></g><g transform="translate(429,429) scale(0.39,0.39)"><g transform="" style="fill: rgb(0, 0, 0);">
<g>
	<polygon points="0,5 95,0 100,95 5,100"/>
</g>
</g></g><g transform="translate(585,429) scale(0.39,0.39)"><g transform="" style="fill: rgb(0, 0, 0);">
<g>
	<polygon points="0,15 85,0 100,85 15,100"/>
</g>
</g></g><g transform="translate(663,429) scale(0.39,0.39)"><g transform="" style="fill: rgb(0, 0, 0);">
<polygon points="8,4 4,92 92,96 96,8"/>
</g></g><g transform="translate(702,429) scale(0.39,0.39)"><g transform="" style="fill: rgb(0, 0, 0);">
<polygon points="8,4 4,92 92,96 96,8"/>
</g></g><g transform="translate(741,429) scale(0.39,0.39)"><g transform="" style="fill: rgb(0, 0, 0);">
<g>
	<polygon points="15,5 5,85 85,95 95,15"/>
</g>
</g></g><g transform="translate(819,429) scale(0.39,0.39)"><g transform="" style="fill: rgb(0, 0, 0);">
<polygon points="8,4 4,92 92,96 96,8"/>
</g></g><g transform="translate(897,429) scale(0.39,0.39)"><g transform="" style="fill: rgb(0, 0, 0);">
<g>
	<polygon points="13,0 0,87 87,100 100,13"/>
</g>
</g></g><g transform="translate(936,429) scale(0.39,0.39)"><g transform="" style="fill: rgb(0, 0, 0);">
<g>
	<polygon points="15,5 5,85 85,95 95,15"/>
</g>
</g></g><g transform="translate(1053,429) scale(0.39,0.39)"><g transform="" style="fill: rgb(0, 0, 0);">
<polygon points="8,4 4,92 92,96 96,8"/>
</g></g><g transform="translate(78,468) scale(0.39,0.39)"><g transform="" style="fill: rgb(0, 0, 0);">
<g>
	<polygon points="0,5 95,0 100,95 5,100"/>
</g>
</g></g><g transform="translate(156,468) scale(0.39,0.39)"><g transform="" style="fill: rgb(0, 0, 0);">
<polygon points="8,4 4,92 92,96 96,8"/>
</g></g><g transform="translate(234,468) scale(0.39,0.39)"><g transform="" style="fill: rgb(0, 0, 0);">
<g>
	<polygon points="0,15 85,0 100,85 15,100"/>
</g>
</g></g><g transform="translate(312,468) scale(0.39,0.39)"><g transform="" style="fill: rgb(0, 0, 0);">
<g>
	<polygon points="13,0 0,87 87,100 100,13"/>
</g>
</g></g><g transform="translate(351,468) scale(0.39,0.39)"><g transform="" style="fill: rgb(0, 0, 0);">
<g>
	<polygon points="22,0 0,78 78,100 100,22"/>
</g>
</g></g><g transform="translate(429,468) scale(0.39,0.39)"><g transform="" style="fill: rgb(0, 0, 0);">
<g>
	<polygon points="13,0 0,87 87,100 100,13"/>
</g>
</g></g><g transform="translate(468,468) scale(0.39,0.39)"><g transform="" style="fill: rgb(0, 0, 0);">
<g>
	<polygon points="22,0 0,78 78,100 100,22"/>
</g>
</g></g><g transform="translate(624,468) scale(0.39,0.39)"><g transform="" style="fill: rgb(0, 0, 0);">
<g>
	<polygon points="0,12 88,0 100,88 12,100"/>
</g>
</g></g><g transform="translate(663,468) scale(0.39,0.39)"><g transform="" style="fill: rgb(0, 0, 0);">
<g>
	<polygon points="0,17 83,0 100,83 17,100"/>
</g>
</g></g><g transform="translate(780,468) scale(0.39,0.39)"><g transform="" style="fill: rgb(0, 0, 0);">
<g>
	<polygon points="0,12 88,0 100,88 12,100"/>
</g>
</g></g><g transform="translate(819,468) scale(0.39,0.39)"><g transform="" style="fill: rgb(0, 0, 0);">
<polygon points="8,4 4,92 92,96 96,8"/>
</g></g><g transform="translate(858,468) scale(0.39,0.39)"><g transform="" style="fill: rgb(0, 0, 0);">
<g>
	<polygon points="22,0 0,78 78,100 100,22"/>
</g>
</g></g><g transform="translate(975,468) scale(0.39,0.39)"><g transform="" style="fill: rgb(0, 0, 0);">
<g>
	<polygon points="0,5 95,0 100,95 5,100"/>
</g>
</g></g><g transform="translate(1053,468) scale(0.39,0.39)"><g transform="" style="fill: rgb(0, 0, 0);">
<g>
	<polygon points="13,0 0,87 87,100 100,13"/>
</g>
</g></g><g transform="translate(1092,468) scale(0.39,0.39)"><g transform="" style="fill: rgb(0, 0, 0);">
<g>
	<polygon points="22,0 0,78 78,100 100,22"/>
</g>
</g></g><g transform="translate(39,507) scale(0.39,0.39)"><g transform="" style="fill: rgb(0, 0, 0);">
<g>
	<polygon points="0,12 88,0 100,88 12,100"/>
</g>
</g></g><g transform="translate(78,507) scale(0.39,0.39)"><g transform="" style="fill: rgb(0, 0, 0);">
<polygon points="8,4 4,92 92,96 96,8"/>
</g></g><g transform="translate(117,507) scale(0.39,0.39)"><g transform="" style="fill: rgb(0, 0, 0);">
<polygon points="8,4 4,92 92,96 96,8"/>
</g></g><g transform="translate(156,507) scale(0.39,0.39)"><g transform="" style="fill: rgb(0, 0, 0);">
<g>
	<polygon points="0,17 83,0 100,83 17,100"/>
</g>
</g></g><g transform="translate(273,507) scale(0.39,0.39)"><g transform="" style="fill: rgb(0, 0, 0);">
<g>
	<polygon points="0,15 85,0 100,85 15,100"/>
</g>
</g></g><g transform="translate(351,507) scale(0.39,0.39)"><g transform="" style="fill: rgb(0, 0, 0);">
<g>
	<polygon points="13,0 0,87 87,100 100,13"/>
</g>
</g></g><g transform="translate(390,507) scale(0.39,0.39)"><g transform="" style="fill: rgb(0, 0, 0);">
<g>
	<polygon points="22,0 0,78 78,100 100,22"/>
</g>
</g></g><g transform="translate(468,507) scale(0.39,0.39)"><g transform="" style="fill: rgb(0, 0, 0);">
<polygon points="8,4 4,92 92,96 96,8"/>
</g></g><g transform="translate(507,507) scale(0.39,0.39)"><g transform="" style="fill: rgb(0, 0, 0);">
<g>
	<polygon points="15,5 5,85 85,95 95,15"/>
</g>
</g></g><g transform="translate(585,507) scale(0.39,0.39)"><g transform="" style="fill: rgb(0, 0, 0);">
<g>
	<polygon points="0,12 88,0 100,88 12,100"/>
</g>
</g></g><g transform="translate(624,507) scale(0.39,0.39)"><g transform="" style="fill: rgb(0, 0, 0);">
<polygon points="8,4 4,92 92,96 96,8"/>
</g></g><g transform="translate(780,507) scale(0.39,0.39)"><g transform="" style="fill: rgb(0, 0, 0);">
<polygon points="8,4 4,92 92,96 96,8"/>
</g></g><g transform="translate(858,507) scale(0.39,0.39)"><g transform="" style="fill: rgb(0, 0, 0);">
<polygon points="8,4 4,92 92,96 96,8"/>
</g></g><g transform="translate(975,507) scale(0.39,0.39)"><g transform="" style="fill: rgb(0, 0, 0);">
<polygon points="8,4 4,92 92,96 96,8"/>
</g></g><g transform="translate(1092,507) scale(0.39,0.39)"><g transform="" style="fill: rgb(0, 0, 0);">
<polygon points="8,4 4,92 92,96 96,8"/>
</g></g><g transform="translate(0,546) scale(0.39,0.39)"><g transform="" style="fill: rgb(0, 0, 0);">
<g>
	<polygon points="5,25 75,5 95,75 25,95"/>
</g>
</g></g><g transform="translate(39,546) scale(0.39,0.39)"><g transform="" style="fill: rgb(0, 0, 0);">
<g>
	<polygon points="0,17 83,0 100,83 17,100"/>
</g>
</g></g><g transform="translate(234,546) scale(0.39,0.39)"><g transform="" style="fill: rgb(0, 0, 0);">
<g>
	<polygon points="0,15 85,0 100,85 15,100"/>
</g>
</g></g><g transform="translate(390,546) scale(0.39,0.39)"><g transform="" style="fill: rgb(0, 0, 0);">
<polygon points="8,4 4,92 92,96 96,8"/>
</g></g><g transform="translate(468,546) scale(0.39,0.39)"><g transform="" style="fill: rgb(0, 0, 0);">
<g>
	<polygon points="0,10 90,0 100,90 10,100"/>
</g>
</g></g><g transform="translate(546,546) scale(0.39,0.39)"><g transform="" style="fill: rgb(0, 0, 0);">
<g>
	<polygon points="0,12 88,0 100,88 12,100"/>
</g>
</g></g><g transform="translate(585,546) scale(0.39,0.39)"><g transform="" style="fill: rgb(0, 0, 0);">
<polygon points="8,4 4,92 92,96 96,8"/>
</g></g><g transform="translate(624,546) scale(0.39,0.39)"><g transform="" style="fill: rgb(0, 0, 0);">
<polygon points="8,4 4,92 92,96 96,8"/>
</g></g><g transform="translate(702,546) scale(0.39,0.39)"><g transform="" style="fill: rgb(0, 0, 0);">
<g>
	<polygon points="0,15 85,0 100,85 15,100"/>
</g>
</g></g><g transform="translate(780,546) scale(0.39,0.39)"><g transform="" style="fill: rgb(0, 0, 0);">
<polygon points="8,4 4,92 92,96 96,8"/>
</g></g><g transform="translate(858,546) scale(0.39,0.39)"><g transform="" style="fill: rgb(0, 0, 0);">
<polygon points="8,4 4,92 92,96 96,8"/>
</g></g><g transform="translate(975,546) scale(0.39,0.39)"><g transform="" style="fill: rgb(0, 0, 0);">
<polygon points="8,4 4,92 92,96 96,8"/>
</g></g><g transform="translate(1053,546) scale(0.39,0.39)"><g transform="" style="fill: rgb(0, 0, 0);">
<g>
	<polygon points="0,12 88,0 100,88 12,100"/>
</g>
</g></g><g transform="translate(1092,546) scale(0.39,0.39)"><g transform="" style="fill: rgb(0, 0, 0);">
<g>
	<polygon points="0,17 83,0 100,83 17,100"/>
</g>
</g></g><g transform="translate(117,585) scale(0.39,0.39)"><g transform="" style="fill: rgb(0, 0, 0);">
<g>
	<polygon points="0,12 88,0 100,88 12,100"/>
</g>
</g></g><g transform="translate(156,585) scale(0.39,0.39)"><g transform="" style="fill: rgb(0, 0, 0);">
<g>
	<polygon points="22,0 0,78 78,100 100,22"/>
</g>
</g></g><g transform="translate(312,585) scale(0.39,0.39)"><g transform="" style="fill: rgb(0, 0, 0);">
<g>
	<polygon points="0,5 95,0 100,95 5,100"/>
</g>
</g></g><g transform="translate(390,585) scale(0.39,0.39)"><g transform="" style="fill: rgb(0, 0, 0);">
<polygon points="8,4 4,92 92,96 96,8"/>
</g></g><g transform="translate(507,585) scale(0.39,0.39)"><g transform="" style="fill: rgb(0, 0, 0);">
<g>
	<polygon points="5,25 75,5 95,75 25,95"/>
</g>
</g></g><g transform="translate(546,585) scale(0.39,0.39)"><g transform="" style="fill: rgb(0, 0, 0);">
<polygon points="8,4 4,92 92,96 96,8"/>
</g></g><g transform="translate(624,585) scale(0.39,0.39)"><g transform="" style="fill: rgb(0, 0, 0);">
<g>
	<polygon points="13,0 0,87 87,100 100,13"/>
</g>
</g></g><g transform="translate(663,585) scale(0.39,0.39)"><g transform="" style="fill: rgb(0, 0, 0);">
<g>
	<polygon points="22,0 0,78 78,100 100,22"/>
</g>
</g></g><g transform="translate(741,585) scale(0.39,0.39)"><g transform="" style="fill: rgb(0, 0, 0);">
<g>
	<polygon points="5,25 75,5 95,75 25,95"/>
</g>
</g></g><g transform="translate(780,585) scale(0.39,0.39)"><g transform="" style="fill: rgb(0, 0, 0);">
<polygon points="8,4 4,92 92,96 96,8"/>
</g></g><g transform="translate(819,585) scale(0.39,0.39)"><g transform="" style="fill: rgb(0, 0, 0);">
<polygon points="8,4 4,92 92,96 96,8"/>
</g></g><g transform="translate(858,585) scale(0.39,0.39)"><g transform="" style="fill: rgb(0, 0, 0);">
<polygon points="8,4 4,92 92,96 96,8"/>
</g></g><g transform="translate(936,585) scale(0.39,0.39)"><g transform="" style="fill: rgb(0, 0, 0);">
<g>
	<polygon points="5,25 75,5 95,75 25,95"/>
</g>
</g></g><g transform="translate(975,585) scale(0.39,0.39)"><g transform="" style="fill: rgb(0, 0, 0);">
<polygon points="8,4 4,92 92,96 96,8"/>
</g></g><g transform="translate(1053,585) scale(0.39,0.39)"><g transform="" style="fill: rgb(0, 0, 0);">
<polygon points="8,4 4,92 92,96 96,8"/>
</g></g><g transform="translate(0,624) scale(0.39,0.39)"><g transform="" style="fill: rgb(0, 0, 0);">
<g>
	<polygon points="5,25 75,5 95,75 25,95"/>
</g>
</g></g><g transform="translate(39,624) scale(0.39,0.39)"><g transform="" style="fill: rgb(0, 0, 0);">
<polygon points="8,4 4,92 92,96 96,8"/>
</g></g><g transform="translate(78,624) scale(0.39,0.39)"><g transform="" style="fill: rgb(0, 0, 0);">
<polygon points="8,4 4,92 92,96 96,8"/>
</g></g><g transform="translate(117,624) scale(0.39,0.39)"><g transform="" style="fill: rgb(0, 0, 0);">
<polygon points="8,4 4,92 92,96 96,8"/>
</g></g><g transform="translate(156,624) scale(0.39,0.39)"><g transform="" style="fill: rgb(0, 0, 0);">
<g>
	<polygon points="0,17 83,0 100,83 17,100"/>
</g>
</g></g><g transform="translate(234,624) scale(0.39,0.39)"><g transform="" style="fill: rgb(0, 0, 0);">
<g>
	<polygon points="5,25 75,5 95,75 25,95"/>
</g>
</g></g><g transform="translate(273,624) scale(0.39,0.39)"><g transform="" style="fill: rgb(0, 0, 0);">
<polygon points="8,4 4,92 92,96 96,8"/>
</g></g><g transform="translate(312,624) scale(0.39,0.39)"><g transform="" style="fill: rgb(0, 0, 0);">
<polygon points="8,4 4,92 92,96 96,8"/>
</g></g><g transform="translate(390,624) scale(0.39,0.39)"><g transform="" style="fill: rgb(0, 0, 0);">
<g>
	<polygon points="0,10 90,0 100,90 10,100"/>
</g>
</g></g><g transform="translate(546,624) scale(0.39,0.39)"><g transform="" style="fill: rgb(0, 0, 0);">
<polygon points="8,4 4,92 92,96 96,8"/>
</g></g><g transform="translate(585,624) scale(0.39,0.39)"><g transform="" style="fill: rgb(0, 0, 0);">
<g>
	<polygon points="22,0 0,78 78,100 100,22"/>
</g>
</g></g><g transform="translate(663,624) scale(0.39,0.39)"><g transform="" style="fill: rgb(0, 0, 0);">
<polygon points="8,4 4,92 92,96 96,8"/>
</g></g><g transform="translate(780,624) scale(0.39,0.39)"><g transform="" style="fill: rgb(0, 0, 0);">
<polygon points="8,4 4,92 92,96 96,8"/>
</g></g><g transform="translate(858,624) scale(0.39,0.39)"><g transform="" style="fill: rgb(0, 0, 0);">
<polygon points="8,4 4,92 92,96 96,8"/>
</g></g><g transform="translate(975,624) scale(0.39,0.39)"><g transform="" style="fill: rgb(0, 0, 0);">
<polygon points="8,4 4,92 92,96 96,8"/>
</g></g><g transform="translate(1053,624) scale(0.39,0.39)"><g transform="" style="fill: rgb(0, 0, 0);">
<g>
	<polygon points="13,0 0,87 87,100 100,13"/>
</g>
</g></g><g transform="translate(1092,624) scale(0.39,0.39)"><g transform="" style="fill: rgb(0, 0, 0);">
<g>
	<polygon points="22,0 0,78 78,100 100,22"/>
</g>
</g></g><g transform="translate(39,663) scale(0.39,0.39)"><g transform="" style="fill: rgb(0, 0, 0);">
<g>
	<polygon points="0,10 90,0 100,90 10,100"/>
</g>
</g></g><g transform="translate(117,663) scale(0.39,0.39)"><g transform="" style="fill: rgb(0, 0, 0);">
<polygon points="8,4 4,92 92,96 96,8"/>
</g></g><g transform="translate(195,663) scale(0.39,0.39)"><g transform="" style="fill: rgb(0, 0, 0);">
<g>
	<polygon points="0,15 85,0 100,85 15,100"/>
</g>
</g></g><g transform="translate(273,663) scale(0.39,0.39)"><g transform="" style="fill: rgb(0, 0, 0);">
<g>
	<polygon points="13,0 0,87 87,100 100,13"/>
</g>
</g></g><g transform="translate(312,663) scale(0.39,0.39)"><g transform="" style="fill: rgb(0, 0, 0);">
<polygon points="8,4 4,92 92,96 96,8"/>
</g></g><g transform="translate(429,663) scale(0.39,0.39)"><g transform="" style="fill: rgb(0, 0, 0);">
<g>
	<polygon points="5,25 75,5 95,75 25,95"/>
</g>
</g></g><g transform="translate(468,663) scale(0.39,0.39)"><g transform="" style="fill: rgb(0, 0, 0);">
<g>
	<polygon points="15,5 5,85 85,95 95,15"/>
</g>
</g></g><g transform="translate(546,663) scale(0.39,0.39)"><g transform="" style="fill: rgb(0, 0, 0);">
<g>
	<polygon points="13,0 0,87 87,100 100,13"/>
</g>
</g></g><g transform="translate(585,663) scale(0.39,0.39)"><g transform="" style="fill: rgb(0, 0, 0);">
<g>
	<polygon points="0,17 83,0 100,83 17,100"/>
</g>
</g></g><g transform="translate(663,663) scale(0.39,0.39)"><g transform="" style="fill: rgb(0, 0, 0);">
<g>
	<polygon points="13,0 0,87 87,100 100,13"/>
</g>
</g></g><g transform="translate(702,663) scale(0.39,0.39)"><g transform="" style="fill: rgb(0, 0, 0);">
<g>
	<polygon points="15,5 5,85 85,95 95,15"/>
</g>
</g></g><g transform="translate(780,663) scale(0.39,0.39)"><g transform="" style="fill: rgb(0, 0, 0);">
<g>
	<polygon points="13,0 0,87 87,100 100,13"/>
</g>
</g></g><g transform="translate(819,663) scale(0.39,0.39)"><g transform="" style="fill: rgb(0, 0, 0);">
<polygon points="8,4 4,92 92,96 96,8"/>
</g></g><g transform="translate(858,663) scale(0.39,0.39)"><g transform="" style="fill: rgb(0, 0, 0);">
<g>
	<polygon points="0,17 83,0 100,83 17,100"/>
</g>
</g></g><g transform="translate(975,663) scale(0.39,0.39)"><g transform="" style="fill: rgb(0, 0, 0);">
<g>
	<polygon points="13,0 0,87 87,100 100,13"/>
</g>
</g></g><g transform="translate(1014,663) scale(0.39,0.39)"><g transform="" style="fill: rgb(0, 0, 0);">
<g>
	<polygon points="15,5 5,85 85,95 95,15"/>
</g>
</g></g><g transform="translate(1092,663) scale(0.39,0.39)"><g transform="" style="fill: rgb(0, 0, 0);">
<polygon points="8,4 4,92 92,96 96,8"/>
</g></g><g transform="translate(0,702) scale(0.39,0.39)"><g transform="" style="fill: rgb(0, 0, 0);">
<g>
	<polygon points="0,15 85,0 100,85 15,100"/>
</g>
</g></g><g transform="translate(117,702) scale(0.39,0.39)"><g transform="" style="fill: rgb(0, 0, 0);">
<g>
	<polygon points="13,0 0,87 87,100 100,13"/>
</g>
</g></g><g transform="translate(156,702) scale(0.39,0.39)"><g transform="" style="fill: rgb(0, 0, 0);">
<g>
	<polygon points="22,0 0,78 78,100 100,22"/>
</g>
</g></g><g transform="translate(234,702) scale(0.39,0.39)"><g transform="" style="fill: rgb(0, 0, 0);">
<g>
	<polygon points="0,15 85,0 100,85 15,100"/>
</g>
</g></g><g transform="translate(312,702) scale(0.39,0.39)"><g transform="" style="fill: rgb(0, 0, 0);">
<g>
	<polygon points="13,0 0,87 87,100 100,13"/>
</g>
</g></g><g transform="translate(351,702) scale(0.39,0.39)"><g transform="" style="fill: rgb(0, 0, 0);">
<g>
	<polygon points="22,0 0,78 78,100 100,22"/>
</g>
</g></g><g transform="translate(507,702) scale(0.39,0.39)"><g transform="" style="fill: rgb(0, 0, 0);">
<g>
	<polygon points="0,15 85,0 100,85 15,100"/>
</g>
</g></g><g transform="translate(819,702) scale(0.39,0.39)"><g transform="" style="fill: rgb(0, 0, 0);">
<polygon points="8,4 4,92 92,96 96,8"/>
</g></g><g transform="translate(897,702) scale(0.39,0.39)"><g transform="" style="fill: rgb(0, 0, 0);">
<g>
	<polygon points="0,12 88,0 100,88 12,100"/>
</g>
</g></g><g transform="translate(936,702) scale(0.39,0.39)"><g transform="" style="fill: rgb(0, 0, 0);">
<g>
	<polygon points="22,0 0,78 78,100 100,22"/>
</g>
</g></g><g transform="translate(1053,702) scale(0.39,0.39)"><g transform="" style="fill: rgb(0, 0, 0);">
<g>
	<polygon points="0,12 88,0 100,88 12,100"/>
</g>
</g></g><g transform="translate(1092,702) scale(0.39,0.39)"><g transform="" style="fill: rgb(0, 0, 0);">
<g>
	<polygon points="0,17 83,0 100,83 17,100"/>
</g>
</g></g><g transform="translate(39,741) scale(0.39,0.39)"><g transform="" style="fill: rgb(0, 0, 0);">
<g>
	<polygon points="5,25 75,5 95,75 25,95"/>
</g>
</g></g><g transform="translate(78,741) scale(0.39,0.39)"><g transform="" style="fill: rgb(0, 0, 0);">
<g>
	<polygon points="22,0 0,78 78,100 100,22"/>
</g>
</g></g><g transform="translate(156,741) scale(0.39,0.39)"><g transform="" style="fill: rgb(0, 0, 0);">
<polygon points="8,4 4,92 92,96 96,8"/>
</g></g><g transform="translate(351,741) scale(0.39,0.39)"><g transform="" style="fill: rgb(0, 0, 0);">
<g>
	<polygon points="13,0 0,87 87,100 100,13"/>
</g>
</g></g><g transform="translate(390,741) scale(0.39,0.39)"><g transform="" style="fill: rgb(0, 0, 0);">
<polygon points="8,4 4,92 92,96 96,8"/>
</g></g><g transform="translate(429,741) scale(0.39,0.39)"><g transform="" style="fill: rgb(0, 0, 0);">
<g>
	<polygon points="22,0 0,78 78,100 100,22"/>
</g>
</g></g><g transform="translate(585,741) scale(0.39,0.39)"><g transform="" style="fill: rgb(0, 0, 0);">
<g>
	<polygon points="0,15 85,0 100,85 15,100"/>
</g>
</g></g><g transform="translate(663,741) scale(0.39,0.39)"><g transform="" style="fill: rgb(0, 0, 0);">
<g>
	<polygon points="0,12 88,0 100,88 12,100"/>
</g>
</g></g><g transform="translate(702,741) scale(0.39,0.39)"><g transform="" style="fill: rgb(0, 0, 0);">
<g>
	<polygon points="15,5 5,85 85,95 95,15"/>
</g>
</g></g><g transform="translate(780,741) scale(0.39,0.39)"><g transform="" style="fill: rgb(0, 0, 0);">
<g>
	<polygon points="0,12 88,0 100,88 12,100"/>
</g>
</g></g><g transform="translate(819,741) scale(0.39,0.39)"><g transform="" style="fill: rgb(0, 0, 0);">
<polygon points="8,4 4,92 92,96 96,8"/>
</g></g><g transform="translate(858,741) scale(0.39,0.39)"><g transform="" style="fill: rgb(0, 0, 0);">
<polygon points="8,4 4,92 92,96 96,8"/>
</g></g><g transform="translate(897,741) scale(0.39,0.39)"><g transform="" style="fill: rgb(0, 0, 0);">
<polygon points="8,4 4,92 92,96 96,8"/>
</g></g><g transform="translate(936,741) scale(0.39,0.39)"><g transform="" style="fill: rgb(0, 0, 0);">
<polygon points="8,4 4,92 92,96 96,8"/>
</g></g><g transform="translate(975,741) scale(0.39,0.39)"><g transform="" style="fill: rgb(0, 0, 0);">
<g>
	<polygon points="15,5 5,85 85,95 95,15"/>
</g>
</g></g><g transform="translate(1053,741) scale(0.39,0.39)"><g transform="" style="fill: rgb(0, 0, 0);">
<g>
	<polygon points="0,10 90,0 100,90 10,100"/>
</g>
</g></g><g transform="translate(0,780) scale(0.39,0.39)"><g transform="" style="fill: rgb(0, 0, 0);">
<g>
	<polygon points="0,15 85,0 100,85 15,100"/>
</g>
</g></g><g transform="translate(78,780) scale(0.39,0.39)"><g transform="" style="fill: rgb(0, 0, 0);">
<g>
	<polygon points="0,10 90,0 100,90 10,100"/>
</g>
</g></g><g transform="translate(156,780) scale(0.39,0.39)"><g transform="" style="fill: rgb(0, 0, 0);">
<g>
	<polygon points="13,0 0,87 87,100 100,13"/>
</g>
</g></g><g transform="translate(195,780) scale(0.39,0.39)"><g transform="" style="fill: rgb(0, 0, 0);">
<polygon points="8,4 4,92 92,96 96,8"/>
</g></g><g transform="translate(234,780) scale(0.39,0.39)"><g transform="" style="fill: rgb(0, 0, 0);">
<polygon points="8,4 4,92 92,96 96,8"/>
</g></g><g transform="translate(273,780) scale(0.39,0.39)"><g transform="" style="fill: rgb(0, 0, 0);">
<g>
	<polygon points="15,5 5,85 85,95 95,15"/>
</g>
</g></g><g transform="translate(390,780) scale(0.39,0.39)"><g transform="" style="fill: rgb(0, 0, 0);">
<polygon points="8,4 4,92 92,96 96,8"/>
</g></g><g transform="translate(429,780) scale(0.39,0.39)"><g transform="" style="fill: rgb(0, 0, 0);">
<polygon points="8,4 4,92 92,96 96,8"/>
</g></g><g transform="translate(468,780) scale(0.39,0.39)"><g transform="" style="fill: rgb(0, 0, 0);">
<g>
	<polygon points="15,5 5,85 85,95 95,15"/>
</g>
</g></g><g transform="translate(624,780) scale(0.39,0.39)"><g transform="" style="fill: rgb(0, 0, 0);">
<g>
	<polygon points="0,12 88,0 100,88 12,100"/>
</g>
</g></g><g transform="translate(663,780) scale(0.39,0.39)"><g transform="" style="fill: rgb(0, 0, 0);">
<g>
	<polygon points="0,17 83,0 100,83 17,100"/>
</g>
</g></g><g transform="translate(741,780) scale(0.39,0.39)"><g transform="" style="fill: rgb(0, 0, 0);">
<g>
	<polygon points="0,12 88,0 100,88 12,100"/>
</g>
</g></g><g transform="translate(780,780) scale(0.39,0.39)"><g transform="" style="fill: rgb(0, 0, 0);">
<polygon points="8,4 4,92 92,96 96,8"/>
</g></g><g transform="translate(819,780) scale(0.39,0.39)"><g transform="" style="fill: rgb(0, 0, 0);">
<polygon points="8,4 4,92 92,96 96,8"/>
</g></g><g transform="translate(858,780) scale(0.39,0.39)"><g transform="" style="fill: rgb(0, 0, 0);">
<polygon points="8,4 4,92 92,96 96,8"/>
</g></g><g transform="translate(897,780) scale(0.39,0.39)"><g transform="" style="fill: rgb(0, 0, 0);">
<polygon points="8,4 4,92 92,96 96,8"/>
</g></g><g transform="translate(936,780) scale(0.39,0.39)"><g transform="" style="fill: rgb(0, 0, 0);">
<polygon points="8,4 4,92 92,96 96,8"/>
</g></g><g transform="translate(312,819) scale(0.39,0.39)"><g transform="" style="fill: rgb(0, 0, 0);">
<g>
	<polygon points="5,25 75,5 95,75 25,95"/>
</g>
</g></g><g transform="translate(351,819) scale(0.39,0.39)"><g transform="" style="fill: rgb(0, 0, 0);">
<polygon points="8,4 4,92 92,96 96,8"/>
</g></g><g transform="translate(390,819) scale(0.39,0.39)"><g transform="" style="fill: rgb(0, 0, 0);">
<polygon points="8,4 4,92 92,96 96,8"/>
</g></g><g transform="translate(507,819) scale(0.39,0.39)"><g transform="" style="fill: rgb(0, 0, 0);">
<g>
	<polygon points="0,15 85,0 100,85 15,100"/>
</g>
</g></g><g transform="translate(585,819) scale(0.39,0.39)"><g transform="" style="fill: rgb(0, 0, 0);">
<g>
	<polygon points="0,12 88,0 100,88 12,100"/>
</g>
</g></g><g transform="translate(624,819) scale(0.39,0.39)"><g transform="" style="fill: rgb(0, 0, 0);">
<polygon points="8,4 4,92 92,96 96,8"/>
</g></g><g transform="translate(741,819) scale(0.39,0.39)"><g transform="" style="fill: rgb(0, 0, 0);">
<polygon points="8,4 4,92 92,96 96,8"/>
</g></g><g transform="translate(780,819) scale(0.39,0.39)"><g transform="" style="fill: rgb(0, 0, 0);">
<polygon points="8,4 4,92 92,96 96,8"/>
</g></g><g transform="translate(936,819) scale(0.39,0.39)"><g transform="" style="fill: rgb(0, 0, 0);">
<polygon points="8,4 4,92 92,96 96,8"/>
</g></g><g transform="translate(1014,819) scale(0.39,0.39)"><g transform="" style="fill: rgb(0, 0, 0);">
<g>
	<polygon points="5,25 75,5 95,75 25,95"/>
</g>
</g></g><g transform="translate(1053,819) scale(0.39,0.39)"><g transform="" style="fill: rgb(0, 0, 0);">
<polygon points="8,4 4,92 92,96 96,8"/>
</g></g><g transform="translate(1092,819) scale(0.39,0.39)"><g transform="" style="fill: rgb(0, 0, 0);">
<g>
	<polygon points="22,0 0,78 78,100 100,22"/>
</g>
</g></g><g transform="translate(390,858) scale(0.39,0.39)"><g transform="" style="fill: rgb(0, 0, 0);">
<polygon points="8,4 4,92 92,96 96,8"/>
</g></g><g transform="translate(429,858) scale(0.39,0.39)"><g transform="" style="fill: rgb(0, 0, 0);">
<g>
	<polygon points="15,5 5,85 85,95 95,15"/>
</g>
</g></g><g transform="translate(546,858) scale(0.39,0.39)"><g transform="" style="fill: rgb(0, 0, 0);">
<g>
	<polygon points="0,12 88,0 100,88 12,100"/>
</g>
</g></g><g transform="translate(585,858) scale(0.39,0.39)"><g transform="" style="fill: rgb(0, 0, 0);">
<polygon points="8,4 4,92 92,96 96,8"/>
</g></g><g transform="translate(624,858) scale(0.39,0.39)"><g transform="" style="fill: rgb(0, 0, 0);">
<polygon points="8,4 4,92 92,96 96,8"/>
</g></g><g transform="translate(663,858) scale(0.39,0.39)"><g transform="" style="fill: rgb(0, 0, 0);">
<g>
	<polygon points="22,0 0,78 78,100 100,22"/>
</g>
</g></g><g transform="translate(741,858) scale(0.39,0.39)"><g transform="" style="fill: rgb(0, 0, 0);">
<polygon points="8,4 4,92 92,96 96,8"/>
</g></g><g transform="translate(780,858) scale(0.39,0.39)"><g transform="" style="fill: rgb(0, 0, 0);">
<polygon points="8,4 4,92 92,96 96,8"/>
</g></g><g transform="translate(858,858) scale(0.39,0.39)"><g transform="" style="fill: rgb(0, 0, 0);">
<g>
	<polygon points="0,15 85,0 100,85 15,100"/>
</g>
</g></g><g transform="translate(936,858) scale(0.39,0.39)"><g transform="" style="fill: rgb(0, 0, 0);">
<polygon points="8,4 4,92 92,96 96,8"/>
</g></g><g transform="translate(975,858) scale(0.39,0.39)"><g transform="" style="fill: rgb(0, 0, 0);">
<g>
	<polygon points="22,0 0,78 78,100 100,22"/>
</g>
</g></g><g transform="translate(1053,858) scale(0.39,0.39)"><g transform="" style="fill: rgb(0, 0, 0);">
<polygon points="8,4 4,92 92,96 96,8"/>
</g></g><g transform="translate(1092,858) scale(0.39,0.39)"><g transform="" style="fill: rgb(0, 0, 0);">
<polygon points="8,4 4,92 92,96 96,8"/>
</g></g><g transform="translate(351,897) scale(0.39,0.39)"><g transform="" style="fill: rgb(0, 0, 0);">
<g>
	<polygon points="0,12 88,0 100,88 12,100"/>
</g>
</g></g><g transform="translate(390,897) scale(0.39,0.39)"><g transform="" style="fill: rgb(0, 0, 0);">
<g>
	<polygon points="0,17 83,0 100,83 17,100"/>
</g>
</g></g><g transform="translate(507,897) scale(0.39,0.39)"><g transform="" style="fill: rgb(0, 0, 0);">
<g>
	<polygon points="5,25 75,5 95,75 25,95"/>
</g>
</g></g><g transform="translate(546,897) scale(0.39,0.39)"><g transform="" style="fill: rgb(0, 0, 0);">
<polygon points="8,4 4,92 92,96 96,8"/>
</g></g><g transform="translate(624,897) scale(0.39,0.39)"><g transform="" style="fill: rgb(0, 0, 0);">
<polygon points="8,4 4,92 92,96 96,8"/>
</g></g><g transform="translate(663,897) scale(0.39,0.39)"><g transform="" style="fill: rgb(0, 0, 0);">
<polygon points="8,4 4,92 92,96 96,8"/>
</g></g><g transform="translate(741,897) scale(0.39,0.39)"><g transform="" style="fill: rgb(0, 0, 0);">
<g>
	<polygon points="13,0 0,87 87,100 100,13"/>
</g>
</g></g><g transform="translate(780,897) scale(0.39,0.39)"><g transform="" style="fill: rgb(0, 0, 0);">
<polygon points="8,4 4,92 92,96 96,8"/>
</g></g><g transform="translate(936,897) scale(0.39,0.39)"><g transform="" style="fill: rgb(0, 0, 0);">
<polygon points="8,4 4,92 92,96 96,8"/>
</g></g><g transform="translate(975,897) scale(0.39,0.39)"><g transform="" style="fill: rgb(0, 0, 0);">
<g>
	<polygon points="0,17 83,0 100,83 17,100"/>
</g>
</g></g><g transform="translate(1053,897) scale(0.39,0.39)"><g transform="" style="fill: rgb(0, 0, 0);">
<polygon points="8,4 4,92 92,96 96,8"/>
</g></g><g transform="translate(1092,897) scale(0.39,0.39)"><g transform="" style="fill: rgb(0, 0, 0);">
<g>
	<polygon points="0,17 83,0 100,83 17,100"/>
</g>
</g></g><g transform="translate(312,936) scale(0.39,0.39)"><g transform="" style="fill: rgb(0, 0, 0);">
<g>
	<polygon points="5,25 75,5 95,75 25,95"/>
</g>
</g></g><g transform="translate(351,936) scale(0.39,0.39)"><g transform="" style="fill: rgb(0, 0, 0);">
<g>
	<polygon points="0,17 83,0 100,83 17,100"/>
</g>
</g></g><g transform="translate(468,936) scale(0.39,0.39)"><g transform="" style="fill: rgb(0, 0, 0);">
<g>
	<polygon points="0,5 95,0 100,95 5,100"/>
</g>
</g></g><g transform="translate(546,936) scale(0.39,0.39)"><g transform="" style="fill: rgb(0, 0, 0);">
<polygon points="8,4 4,92 92,96 96,8"/>
</g></g><g transform="translate(585,936) scale(0.39,0.39)"><g transform="" style="fill: rgb(0, 0, 0);">
<polygon points="8,4 4,92 92,96 96,8"/>
</g></g><g transform="translate(624,936) scale(0.39,0.39)"><g transform="" style="fill: rgb(0, 0, 0);">
<polygon points="8,4 4,92 92,96 96,8"/>
</g></g><g transform="translate(663,936) scale(0.39,0.39)"><g transform="" style="fill: rgb(0, 0, 0);">
<polygon points="8,4 4,92 92,96 96,8"/>
</g></g><g transform="translate(780,936) scale(0.39,0.39)"><g transform="" style="fill: rgb(0, 0, 0);">
<g>
	<polygon points="13,0 0,87 87,100 100,13"/>
</g>
</g></g><g transform="translate(819,936) scale(0.39,0.39)"><g transform="" style="fill: rgb(0, 0, 0);">
<polygon points="8,4 4,92 92,96 96,8"/>
</g></g><g transform="translate(858,936) scale(0.39,0.39)"><g transform="" style="fill: rgb(0, 0, 0);">
<polygon points="8,4 4,92 92,96 96,8"/>
</g></g><g transform="translate(897,936) scale(0.39,0.39)"><g transform="" style="fill: rgb(0, 0, 0);">
<polygon points="8,4 4,92 92,96 96,8"/>
</g></g><g transform="translate(936,936) scale(0.39,0.39)"><g transform="" style="fill: rgb(0, 0, 0);">
<polygon points="8,4 4,92 92,96 96,8"/>
</g></g><g transform="translate(1053,936) scale(0.39,0.39)"><g transform="" style="fill: rgb(0, 0, 0);">
<g>
	<polygon points="0,10 90,0 100,90 10,100"/>
</g>
</g></g><g transform="translate(390,975) scale(0.39,0.39)"><g transform="" style="fill: rgb(0, 0, 0);">
<g>
	<polygon points="0,5 95,0 100,95 5,100"/>
</g>
</g></g><g transform="translate(468,975) scale(0.39,0.39)"><g transform="" style="fill: rgb(0, 0, 0);">
<g>
	<polygon points="0,10 90,0 100,90 10,100"/>
</g>
</g></g><g transform="translate(546,975) scale(0.39,0.39)"><g transform="" style="fill: rgb(0, 0, 0);">
<polygon points="8,4 4,92 92,96 96,8"/>
</g></g><g transform="translate(585,975) scale(0.39,0.39)"><g transform="" style="fill: rgb(0, 0, 0);">
<g>
	<polygon points="0,17 83,0 100,83 17,100"/>
</g>
</g></g><g transform="translate(663,975) scale(0.39,0.39)"><g transform="" style="fill: rgb(0, 0, 0);">
<polygon points="8,4 4,92 92,96 96,8"/>
</g></g><g transform="translate(897,975) scale(0.39,0.39)"><g transform="" style="fill: rgb(0, 0, 0);">
<polygon points="8,4 4,92 92,96 96,8"/>
</g></g><g transform="translate(936,975) scale(0.39,0.39)"><g transform="" style="fill: rgb(0, 0, 0);">
<polygon points="8,4 4,92 92,96 96,8"/>
</g></g><g transform="translate(1014,975) scale(0.39,0.39)"><g transform="" style="fill: rgb(0, 0, 0);">
<g>
	<polygon points="0,15 85,0 100,85 15,100"/>
</g>
</g></g><g transform="translate(312,1014) scale(0.39,0.39)"><g transform="" style="fill: rgb(0, 0, 0);">
<g>
	<polygon points="0,15 85,0 100,85 15,100"/>
</g>
</g></g><g transform="translate(390,1014) scale(0.39,0.39)"><g transform="" style="fill: rgb(0, 0, 0);">
<polygon points="8,4 4,92 92,96 96,8"/>
</g></g><g transform="translate(507,1014) scale(0.39,0.39)"><g transform="" style="fill: rgb(0, 0, 0);">
<g>
	<polygon points="5,25 75,5 95,75 25,95"/>
</g>
</g></g><g transform="translate(546,1014) scale(0.39,0.39)"><g transform="" style="fill: rgb(0, 0, 0);">
<g>
	<polygon points="0,17 83,0 100,83 17,100"/>
</g>
</g></g><g transform="translate(663,1014) scale(0.39,0.39)"><g transform="" style="fill: rgb(0, 0, 0);">
<polygon points="8,4 4,92 92,96 96,8"/>
</g></g><g transform="translate(741,1014) scale(0.39,0.39)"><g transform="" style="fill: rgb(0, 0, 0);">
<g>
	<polygon points="0,12 88,0 100,88 12,100"/>
</g>
</g></g><g transform="translate(780,1014) scale(0.39,0.39)"><g transform="" style="fill: rgb(0, 0, 0);">
<g>
	<polygon points="22,0 0,78 78,100 100,22"/>
</g>
</g></g><g transform="translate(897,1014) scale(0.39,0.39)"><g transform="" style="fill: rgb(0, 0, 0);">
<polygon points="8,4 4,92 92,96 96,8"/>
</g></g><g transform="translate(936,1014) scale(0.39,0.39)"><g transform="" style="fill: rgb(0, 0, 0);">
<polygon points="8,4 4,92 92,96 96,8"/>
</g></g><g transform="translate(975,1014) scale(0.39,0.39)"><g transform="" style="fill: rgb(0, 0, 0);">
<g>
	<polygon points="15,5 5,85 85,95 95,15"/>
</g>
</g></g><g transform="translate(1092,1014) scale(0.39,0.39)"><g transform="" style="fill: rgb(0, 0, 0);">
<g>
	<polygon points="0,15 85,0 100,85 15,100"/>
</g>
</g></g><g transform="translate(351,1053) scale(0.39,0.39)"><g transform="" style="fill: rgb(0, 0, 0);">
<g>
	<polygon points="5,25 75,5 95,75 25,95"/>
</g>
</g></g><g transform="translate(390,1053) scale(0.39,0.39)"><g transform="" style="fill: rgb(0, 0, 0);">
<polygon points="8,4 4,92 92,96 96,8"/>
</g></g><g transform="translate(429,1053) scale(0.39,0.39)"><g transform="" style="fill: rgb(0, 0, 0);">
<g>
	<polygon points="22,0 0,78 78,100 100,22"/>
</g>
</g></g><g transform="translate(624,1053) scale(0.39,0.39)"><g transform="" style="fill: rgb(0, 0, 0);">
<g>
	<polygon points="0,12 88,0 100,88 12,100"/>
</g>
</g></g><g transform="translate(663,1053) scale(0.39,0.39)"><g transform="" style="fill: rgb(0, 0, 0);">
<polygon points="8,4 4,92 92,96 96,8"/>
</g></g><g transform="translate(702,1053) scale(0.39,0.39)"><g transform="" style="fill: rgb(0, 0, 0);">
<polygon points="8,4 4,92 92,96 96,8"/>
</g></g><g transform="translate(741,1053) scale(0.39,0.39)"><g transform="" style="fill: rgb(0, 0, 0);">
<polygon points="8,4 4,92 92,96 96,8"/>
</g></g><g transform="translate(780,1053) scale(0.39,0.39)"><g transform="" style="fill: rgb(0, 0, 0);">
<polygon points="8,4 4,92 92,96 96,8"/>
</g></g><g transform="translate(897,1053) scale(0.39,0.39)"><g transform="" style="fill: rgb(0, 0, 0);">
<polygon points="8,4 4,92 92,96 96,8"/>
</g></g><g transform="translate(1053,1053) scale(0.39,0.39)"><g transform="" style="fill: rgb(0, 0, 0);">
<g>
	<polygon points="0,5 95,0 100,95 5,100"/>
</g>
</g></g><g transform="translate(312,1092) scale(0.39,0.39)"><g transform="" style="fill: rgb(0, 0, 0);">
<g>
	<polygon points="0,15 85,0 100,85 15,100"/>
</g>
</g></g><g transform="translate(390,1092) scale(0.39,0.39)"><g transform="" style="fill: rgb(0, 0, 0);">
<g>
	<polygon points="13,0 0,87 87,100 100,13"/>
</g>
</g></g><g transform="translate(429,1092) scale(0.39,0.39)"><g transform="" style="fill: rgb(0, 0, 0);">
<g>
	<polygon points="0,17 83,0 100,83 17,100"/>
</g>
</g></g><g transform="translate(507,1092) scale(0.39,0.39)"><g transform="" style="fill: rgb(0, 0, 0);">
<g>
	<polygon points="5,25 75,5 95,75 25,95"/>
</g>
</g></g><g transform="translate(546,1092) scale(0.39,0.39)"><g transform="" style="fill: rgb(0, 0, 0);">
<g>
	<polygon points="15,5 5,85 85,95 95,15"/>
</g>
</g></g><g transform="translate(624,1092) scale(0.39,0.39)"><g transform="" style="fill: rgb(0, 0, 0);">
<g>
	<polygon points="13,0 0,87 87,100 100,13"/>
</g>
</g></g><g transform="translate(663,1092) scale(0.39,0.39)"><g transform="" style="fill: rgb(0, 0, 0);">
<g>
	<polygon points="0,17 83,0 100,83 17,100"/>
</g>
</g></g><g transform="translate(741,1092) scale(0.39,0.39)"><g transform="" style="fill: rgb(0, 0, 0);">
<g>
	<polygon points="13,0 0,87 87,100 100,13"/>
</g>
</g></g><g transform="translate(780,1092) scale(0.39,0.39)"><g transform="" style="fill: rgb(0, 0, 0);">
<polygon points="8,4 4,92 92,96 96,8"/>
</g></g><g transform="translate(819,1092) scale(0.39,0.39)"><g transform="" style="fill: rgb(0, 0, 0);">
<polygon points="8,4 4,92 92,96 96,8"/>
</g></g><g transform="translate(858,1092) scale(0.39,0.39)"><g transform="" style="fill: rgb(0, 0, 0);">
<polygon points="8,4 4,92 92,96 96,8"/>
</g></g><g transform="translate(897,1092) scale(0.39,0.39)"><g transform="" style="fill: rgb(0, 0, 0);">
<g>
	<polygon points="0,17 83,0 100,83 17,100"/>
</g>
</g></g><g transform="translate(1053,1092) scale(0.39,0.39)"><g transform="" style="fill: rgb(0, 0, 0);">
<g>
	<polygon points="13,0 0,87 87,100 100,13"/>
</g>
</g></g><g transform="translate(1092,1092) scale(0.39,0.39)"><g transform="" style="fill: rgb(0, 0, 0);">
<g>
	<polygon points="15,5 5,85 85,95 95,15"/>
</g>
</g></g><g transform="translate(0,0) scale(0.39, 0.39)"><g transform="" style="fill: rgb(0, 0, 0);">
<g>


	<polygon points="13,0 0,87 87,100 100,13"/>
	<polygon points="100,17 183,0 200,83 117,100"/>
	<polygon points="200,10 290,0 300,90 200,100"/>
	<polygon points="300,15 385,0 400,85 315,100"/>
	<polygon points="400,12 488,0 500,88 412,100"/>
	<polygon points="522,0 500,78 578,100 600,22"/>
	<polygon points="615,5 605,85 685,95 695,15"/>

	<polygon points="0,115 85,100 100,185 15,200"/>
	<polygon points="600,112 688,100 700,188 612,200"/>

	<polygon points="22,200 0,278 78,300 100,222"/>
	<polygon points="615,205 605,285 685,295 695,215"/>

	<polygon points="0,310 90,300 100,390 0,400"/>
	<polygon points="600,315 685,300 700,385 615,400"/>

	<polygon points="0,412 88,400 100,488 12,500"/>
	<polygon points="622,400 600,478 678,500 700,422"/>

	<polygon points="0,515 85,500 100,585 15,600"/>
	<polygon points="600,512 688,500 700,588 612,600"/>


	<polygon points="13,600 0,687 87,700 100,613"/>
	<polygon points="100,617 183,600 200,683 117,700"/>
	<polygon points="200,610 290,600 300,690 200,700"/>
	<polygon points="300,615 385,600 400,685 315,700"/>
	<polygon points="400,612 488,600 500,688 412,700"/>
	<polygon points="522,600 500,678 578,700 600,622"/>
	<polygon points="615,605 605,685 685,695 695,615"/>

</g>
</g></g><g transform="translate(858,0) scale(0.39, 0.39)"><g transform=" translate(700, 0) scale(-1,1) " style="fill: rgb(0, 0, 0);">
<g>


	<polygon points="13,0 0,87 87,100 100,13"/>
	<polygon points="100,17 183,0 200,83 117,100"/>
	<polygon points="200,10 290,0 300,90 200,100"/>
	<polygon points="300,15 385,0 400,85 315,100"/>
	<polygon points="400,12 488,0 500,88 412,100"/>
	<polygon points="522,0 500,78 578,100 600,22"/>
	<polygon points="615,5 605,85 685,95 695,15"/>

	<polygon points="0,115 85,100 100,185 15,200"/>
	<polygon points="600,112 688,100 700,188 612,200"/>

	<polygon points="22,200 0,278 78,300 100,222"/>
	<polygon points="615,205 605,285 685,295 695,215"/>

	<polygon points="0,310 90,300 100,390 0,400"/>
	<polygon points="600,315 685,300 700,385 615,400"/>

	<polygon points="0,412 88,400 100,488 12,500"/>
	<polygon points="622,400 600,478 678,500 700,422"/>

	<polygon points="0,515 85,500 100,585 15,600"/>
	<polygon points="600,512 688,500 700,588 612,600"/>


	<polygon points="13,600 0,687 87,700 100,613"/>
	<polygon points="100,617 183,600 200,683 117,700"/>
	<polygon points="200,610 290,600 300,690 200,700"/>
	<polygon points="300,615 385,600 400,685 315,700"/>
	<polygon points="400,612 488,600 500,688 412,700"/>
	<polygon points="522,600 500,678 578,700 600,622"/>
	<polygon points="615,605 605,685 685,695 695,615"/>

</g>
</g></g><g transform="translate(0,858) scale(0.39, 0.39)"><g transform=" translate(0,700) scale(1,-1) " style="fill: rgb(0, 0, 0);">
<g>


	<polygon points="13,0 0,87 87,100 100,13"/>
	<polygon points="100,17 183,0 200,83 117,100"/>
	<polygon points="200,10 290,0 300,90 200,100"/>
	<polygon points="300,15 385,0 400,85 315,100"/>
	<polygon points="400,12 488,0 500,88 412,100"/>
	<polygon points="522,0 500,78 578,100 600,22"/>
	<polygon points="615,5 605,85 685,95 695,15"/>

	<polygon points="0,115 85,100 100,185 15,200"/>
	<polygon points="600,112 688,100 700,188 612,200"/>

	<polygon points="22,200 0,278 78,300 100,222"/>
	<polygon points="615,205 605,285 685,295 695,215"/>

	<polygon points="0,310 90,300 100,390 0,400"/>
	<polygon points="600,315 685,300 700,385 615,400"/>

	<polygon points="0,412 88,400 100,488 12,500"/>
	<polygon points="622,400 600,478 678,500 700,422"/>

	<polygon points="0,515 85,500 100,585 15,600"/>
	<polygon points="600,512 688,500 700,588 612,600"/>


	<polygon points="13,600 0,687 87,700 100,613"/>
	<polygon points="100,617 183,600 200,683 117,700"/>
	<polygon points="200,610 290,600 300,690 200,700"/>
	<polygon points="300,615 385,600 400,685 315,700"/>
	<polygon points="400,612 488,600 500,688 412,700"/>
	<polygon points="522,600 500,678 578,700 600,622"/>
	<polygon points="615,605 605,685 685,695 695,615"/>

</g>
</g></g><g transform="translate(78,78) scale(0.39, 0.39)"><g transform="" style="fill: rgb(0, 0, 0);">
<g>

	<polygon points="13,0 0,87 87,100 100,13"/>
	<polygon points="100,17 183,0 200,83 117,100"/>
	<polygon points="200,10 290,0 300,90 200,100"/>

	<polygon points="5,125 75,105 195,175 25,195"/>
	<polygon points="65,63 62,232 228,238 236,68"/>
	<polygon points="215,105 205,185 285,195 295,115"/>

	<polygon points="0,215 85,200 100,285 15,300"/>
	<polygon points="100,212 188,200 200,288 112,300"/>
	<polygon points="222,200 200,278 278,300 300,222"/>


</g>
</g></g><g transform="translate(936,78) scale(0.39, 0.39)"><g transform=" translate(300, 0) scale(-1,1) " style="fill: rgb(0, 0, 0);">
<g>

	<polygon points="13,0 0,87 87,100 100,13"/>
	<polygon points="100,17 183,0 200,83 117,100"/>
	<polygon points="200,10 290,0 300,90 200,100"/>

	<polygon points="5,125 75,105 195,175 25,195"/>
	<polygon points="65,63 62,232 228,238 236,68"/>
	<polygon points="215,105 205,185 285,195 295,115"/>

	<polygon points="0,215 85,200 100,285 15,300"/>
	<polygon points="100,212 188,200 200,288 112,300"/>
	<polygon points="222,200 200,278 278,300 300,222"/>


</g>
</g></g><g transform="translate(78,936) scale(0.39, 0.39)"><g transform=" translate(0,300) scale(1,-1) " style="fill: rgb(0, 0, 0);">
<g>

	<polygon points="13,0 0,87 87,100 100,13"/>
	<polygon points="100,17 183,0 200,83 117,100"/>
	<polygon points="200,10 290,0 300,90 200,100"/>

	<polygon points="5,125 75,105 195,175 25,195"/>
	<polygon points="65,63 62,232 228,238 236,68"/>
	<polygon points="215,105 205,185 285,195 295,115"/>

	<polygon points="0,215 85,200 100,285 15,300"/>
	<polygon points="100,212 188,200 200,288 112,300"/>
	<polygon points="222,200 200,278 278,300 300,222"/>


</g>
</g></g></g></svg>